<svg version="1.1" viewBox="0.0 0.0 128.00787401574803 100.0" fill="none" stroke="none" stroke-linecap="square" stroke-miterlimit="10" xmlns:xlink="http://www.w3.org/1999/xlink" xmlns="http://www.w3.org/2000/svg"><clipPath id="p.0"><path d="m0 0l128.00787 0l0 100.0l-128.00787 0l0 -100.0z" clip-rule="nonzero"/></clipPath><g clip-path="url(#p.0)"><path fill="#000000" fill-opacity="0.0" d="m0 0l128.00787 0l0 100.0l-128.00787 0z" fill-rule="evenodd"/><path fill="#000000" fill-opacity="0.0" d="m0.003937008 13.346457l128.0 0l0 81.85827l-128.0 0z" fill-rule="evenodd"/><path fill="#000040" d="m23.675682 20.658712l-12.5 0l0 -7.671875l34.96875 0l0 7.671875l-12.140625 0l0 66.296875l-10.328125 0l0 -66.296875zm24.484146 60.640625q4.65625 0 6.890625 -0.859375q2.234375 -0.875 3.0625 -3.203125q0.828125 -2.34375 0.828125 -7.171875l0 -57.078125l10.21875 0l0 57.25q0 6.671875 -1.375 10.65625q-1.359375 3.96875 -4.875 5.890625q-3.515625 1.90625 -9.8125 1.90625l-4.9375 0l0 -7.390625zm50.052277 6.484375q-9.328125 0 -14.21875 -5.75q-4.875 -5.765625 -5.421875 -15.8125l9.125 -2.46875q0.46875 7.125 2.796875 11.515625q2.328125 4.375 7.71875 4.375q4.015625 0 6.0625 -2.234375q2.0625 -2.234375 2.0625 -6.4375q0 -4.5625 -1.921875 -7.578125q-1.921875 -3.015625 -6.125 -6.671875l-12.40625 -10.953125q-3.75 -3.296875 -5.4375 -7.078125q-1.6875 -3.796875 -1.6875 -9.265627q0 -8.140625 4.65625 -12.609375q4.65625 -4.46875 12.6875 -4.46875q8.765625 0 13.234375 4.65625q4.484375 4.65625 5.40625 14.421875l-8.78125 2.375002q-0.453125 -6.484377 -2.515625 -10.000002q-2.046875 -3.515625 -7.34375 -3.515625q-3.921875 0 -6.03125 2.0625q-2.09375 2.046875 -2.09375 6.0625q0 3.296875 1.09375 5.531252q1.09375 2.234375 3.75 4.515625l12.515625 10.96875q4.828125 4.28125 7.703125 9.3125q2.890625 5.015625 2.890625 11.421875q0 8.125 -4.9375 12.875q-4.9375 4.75 -12.78125 4.75z" fill-rule="nonzero"/></g></svg>